<?xml version="1.0" ?><!DOCTYPE svg  PUBLIC '-//W3C//DTD SVG 1.1//EN'  'http://www.w3.org/Graphics/SVG/1.1/DTD/svg11.dtd'><svg enable-background="new 0 0 64 64" id="Layer_1" version="1.1" viewBox="0 0 64 64" xml:space="preserve" xmlns="http://www.w3.org/2000/svg" xmlns:xlink="http://www.w3.org/1999/xlink"><g><path d="M9.9,55.3h17.8V37.5H9.9V55.3z M14.7,42c0-0.5,0.1-0.8,0.3-1c0.2-0.2,0.5-0.3,1-0.3h3.4   c0.5,0,0.9,0,1.3,0.1c0.4,0.1,0.7,0.2,1,0.4c0.2,0.1,0.5,0.3,0.7,0.6c0.2,0.2,0.3,0.5,0.4,0.7c0.1,0.3,0.1,0.6,0.1,0.9   c0,1-0.5,1.8-1.6,2.3c1.4,0.4,2.1,1.3,2.1,2.5c0,0.6-0.1,1.1-0.4,1.6c-0.3,0.5-0.7,0.8-1.2,1C21.4,50.9,21,51,20.6,51   c-0.4,0.1-0.9,0.1-1.4,0.1H16c-0.5,0-0.8-0.1-1-0.3c-0.2-0.2-0.3-0.5-0.3-1V42z" fill="#ACE2E5"/><path d="M19.9,44.8c0.3-0.1,0.5-0.3,0.7-0.6c0.1-0.2,0.2-0.4,0.2-0.7c0-0.5-0.2-0.9-0.6-1c-0.4-0.2-0.9-0.3-1.7-0.3   h-1.7V45h1.9C19.2,45,19.7,44.9,19.9,44.8z" fill="#ACE2E5"/><path d="M21.2,48c0-0.5-0.2-0.9-0.6-1.1c-0.4-0.2-0.9-0.4-1.7-0.4h-2.2v3h2.3C20.5,49.5,21.2,49,21.2,48z" fill="#ACE2E5"/><path d="M42.4,25.3L35.9,8.8l-16.5,6.5l6.5,16.5L42.4,25.3z M27.7,16.7c0-0.3,0-0.5,0.1-0.8c0-0.2,0.1-0.4,0.3-0.6   c0.1-0.2,0.3-0.3,0.6-0.4c0.3-0.1,0.5-0.1,0.7-0.1c0.2,0,0.4,0.1,0.6,0.2c0.2,0.1,0.3,0.3,0.5,0.4c0.2,0.2,0.3,0.4,0.6,0.6l5,5.3   c0.4,0.4,0.6,0.7,0.7,0.9c0.1,0.2,0.1,0.5,0,0.7c-0.1,0.3-0.3,0.4-0.6,0.5c-0.2,0.1-0.3,0.1-0.4,0.1c-0.1,0-0.3-0.1-0.4-0.1   c-0.1-0.1-0.3-0.2-0.4-0.3c-0.2-0.2-0.3-0.3-0.4-0.4l-0.9-1l-3.9,1.6l0,1.4c0,0.6,0,0.9-0.1,1.2c-0.1,0.2-0.2,0.4-0.5,0.5   c-0.2,0.1-0.5,0.1-0.8,0c-0.3-0.1-0.4-0.3-0.5-0.5c-0.1-0.1-0.1-0.3-0.1-0.4c0-0.2,0-0.4,0-0.7l0-7.3C27.7,17.2,27.7,17,27.7,16.7z   " fill="#EA7878"/><polygon fill="#EA7878" points="32.5,20.4 29.5,17 29.6,21.6  "/><path d="M32.3,49.9l17.2,4.6l4.6-17.2l-17.2-4.6L32.3,49.9z M38.8,41.9c0.2-0.8,0.5-1.5,0.9-2.1   c0.4-0.6,0.9-1,1.5-1.4c0.6-0.3,1.2-0.5,1.8-0.6c0.7-0.1,1.3,0,2,0.1c0.8,0.2,1.5,0.6,2,1.1c0.6,0.5,0.9,1,1.1,1.6   c0.2,0.6,0.3,1.1,0.1,1.5c-0.1,0.2-0.2,0.4-0.4,0.6c-0.2,0.1-0.4,0.2-0.7,0.1c-0.3-0.1-0.4-0.2-0.5-0.3c-0.1-0.2-0.2-0.4-0.3-0.8   c-0.1-0.6-0.3-1-0.6-1.4c-0.3-0.3-0.7-0.6-1.2-0.7c-0.8-0.2-1.6-0.1-2.3,0.4c-0.7,0.5-1.2,1.3-1.5,2.5c-0.2,0.8-0.3,1.5-0.2,2   c0.1,0.6,0.3,1,0.6,1.4c0.3,0.4,0.8,0.6,1.3,0.8c0.6,0.2,1.1,0.1,1.6,0c0.5-0.2,0.9-0.5,1.3-1c0.2-0.2,0.3-0.4,0.5-0.6   c0.2-0.1,0.4-0.2,0.7-0.1c0.2,0.1,0.4,0.2,0.6,0.4c0.1,0.2,0.2,0.4,0.1,0.7c-0.1,0.3-0.3,0.6-0.5,1c-0.3,0.3-0.6,0.6-1,0.9   c-0.4,0.3-0.9,0.4-1.5,0.5c-0.6,0.1-1.2,0-1.9-0.2c-0.5-0.1-1-0.3-1.4-0.5c-0.4-0.2-0.8-0.5-1.1-0.8c-0.3-0.3-0.5-0.7-0.8-1.1   c-0.2-0.4-0.3-0.8-0.4-1.2c-0.1-0.4-0.1-0.9-0.1-1.4C38.6,42.9,38.7,42.4,38.8,41.9z" fill="#EDA86B"/><path d="M24.1,32.8c0.3,0.7,0.9,1.1,1.7,1.1c0.2,0,0.4,0,0.7-0.1l16.9-6.7c0.4-0.2,0.8-0.5,1-0.9   c0.2-0.4,0.2-0.9,0-1.4l-6.7-17c-0.4-0.9-1.4-1.4-2.3-1l-17,6.7c-0.9,0.4-1.4,1.4-1,2.3L24.1,32.8z M35.9,8.8l6.5,16.6l-16.5,6.5   l-6.5-16.5L35.9,8.8z" fill="#1E0E10"/><path d="M27.9,35.5H9.7c-1,0-1.8,0.8-1.8,1.8v18.2c0,1,0.8,1.8,1.8,1.8h18.2c1,0,1.8-0.8,1.8-1.8V37.3   C29.7,36.3,28.9,35.5,27.9,35.5z M27.7,55.3H9.9V37.5h17.8V55.3z" fill="#1E0E10"/><path d="M54.8,35.4l-17.6-4.7C36.2,30.5,35.2,31,35,32l-4.7,17.6c-0.3,0.9,0.3,1.9,1.3,2.2l17.6,4.7   c0.2,0,0.3,0.1,0.5,0.1c0.8,0,1.5-0.5,1.7-1.3L56,37.6C56.3,36.6,55.7,35.6,54.8,35.4z M49.5,54.4l-17.2-4.6l4.6-17.2l17.2,4.6   L49.5,54.4z" fill="#1E0E10"/><path d="M27.7,25.4c0,0.2,0,0.3,0.1,0.4c0.1,0.2,0.3,0.4,0.5,0.5c0.3,0.1,0.5,0.1,0.8,0c0.3-0.1,0.5-0.3,0.5-0.5   c0.1-0.2,0.1-0.6,0.1-1.2l0-1.4l3.9-1.6l0.9,1c0.1,0.1,0.3,0.3,0.4,0.4c0.2,0.2,0.3,0.3,0.4,0.3c0.1,0.1,0.2,0.1,0.4,0.1   c0.1,0,0.3,0,0.4-0.1c0.3-0.1,0.5-0.3,0.6-0.5c0.1-0.3,0.1-0.5,0-0.7c-0.1-0.2-0.3-0.5-0.7-0.9l-5-5.3c-0.2-0.3-0.4-0.5-0.6-0.6   c-0.2-0.2-0.3-0.3-0.5-0.4c-0.2-0.1-0.4-0.2-0.6-0.2c-0.2,0-0.5,0-0.7,0.1c-0.3,0.1-0.5,0.2-0.6,0.4c-0.1,0.2-0.2,0.4-0.3,0.6   c0,0.2-0.1,0.5-0.1,0.8c0,0.3,0,0.5,0,0.8l0,7.3C27.7,25,27.7,25.2,27.7,25.4z M32.5,20.4l-2.9,1.1L29.5,17L32.5,20.4z" fill="#1E0E10"/><path d="M16,51.1h3.2c0.5,0,1,0,1.4-0.1c0.4-0.1,0.8-0.1,1.1-0.3c0.5-0.2,0.9-0.6,1.2-1c0.3-0.5,0.4-1,0.4-1.6   c0-1.3-0.7-2.1-2.1-2.5c1-0.5,1.6-1.2,1.6-2.3c0-0.3,0-0.6-0.1-0.9c-0.1-0.3-0.2-0.5-0.4-0.7c-0.2-0.2-0.4-0.4-0.7-0.6   c-0.3-0.2-0.6-0.3-1-0.4c-0.4-0.1-0.8-0.1-1.3-0.1H16c-0.5,0-0.8,0.1-1,0.3c-0.2,0.2-0.3,0.5-0.3,1v7.8c0,0.5,0.1,0.8,0.3,1   C15.2,51,15.5,51.1,16,51.1z M16.8,42.3h1.7c0.8,0,1.3,0.1,1.7,0.3c0.4,0.2,0.6,0.5,0.6,1c0,0.2-0.1,0.5-0.2,0.7   c-0.2,0.3-0.4,0.5-0.7,0.6c-0.3,0.1-0.7,0.1-1.2,0.1h-1.9V42.3z M16.8,46.5H19c0.7,0,1.3,0.1,1.7,0.4c0.4,0.2,0.6,0.6,0.6,1.1   c0,1-0.7,1.5-2.1,1.5h-2.3V46.5z" fill="#1E0E10"/><path d="M39.1,46c0.2,0.4,0.5,0.8,0.8,1.1c0.3,0.3,0.7,0.6,1.1,0.8c0.4,0.2,0.9,0.4,1.4,0.5   c0.7,0.2,1.3,0.2,1.9,0.2c0.6-0.1,1.1-0.3,1.5-0.5c0.4-0.3,0.8-0.6,1-0.9c0.3-0.3,0.4-0.7,0.5-1c0.1-0.3,0-0.5-0.1-0.7   c-0.1-0.2-0.3-0.4-0.6-0.4c-0.3-0.1-0.5,0-0.7,0.1c-0.2,0.1-0.3,0.3-0.5,0.6c-0.4,0.5-0.8,0.9-1.3,1c-0.5,0.2-1,0.2-1.6,0   c-0.5-0.1-1-0.4-1.3-0.8c-0.3-0.4-0.5-0.8-0.6-1.4c-0.1-0.6,0-1.3,0.2-2c0.3-1.2,0.8-2,1.5-2.5c0.7-0.5,1.4-0.6,2.3-0.4   c0.5,0.1,0.9,0.4,1.2,0.7c0.3,0.3,0.5,0.8,0.6,1.4c0.1,0.3,0.2,0.6,0.3,0.8c0.1,0.2,0.3,0.3,0.5,0.3c0.2,0.1,0.5,0,0.7-0.1   c0.2-0.1,0.3-0.3,0.4-0.6c0.1-0.4,0.1-0.9-0.1-1.5C48,40.1,47.6,39.5,47,39c-0.5-0.5-1.2-0.9-2-1.1c-0.7-0.2-1.3-0.2-2-0.1   c-0.7,0.1-1.3,0.3-1.8,0.6c-0.6,0.3-1,0.8-1.5,1.4c-0.4,0.6-0.7,1.3-0.9,2.1c-0.1,0.5-0.2,1-0.2,1.5c0,0.5,0,0.9,0.1,1.4   C38.7,45.2,38.9,45.6,39.1,46z" fill="#1E0E10"/></g></svg>